<svg width="120" height="120" viewBox="0 0 120 120" fill="none" xmlns="http://www.w3.org/2000/svg">
<path d="M101.647 118.967H18.353C15.5572 118.967 13.2905 116.701 13.2905 113.905V5.93359C13.2905 3.13773 15.5572 0.871094 18.353 0.871094H79.9997L106.709 27.2943V113.905C106.71 116.701 104.443 118.967 101.647 118.967Z" fill="#DCE2E2"/>
<path d="M68.5041 18.6862H24.9743C24.483 18.6862 24.0118 18.491 23.6644 18.1436C23.317 17.7962 23.1218 17.325 23.1218 16.8337C23.1218 16.3424 23.317 15.8712 23.6644 15.5238C24.0118 15.1764 24.483 14.9812 24.9743 14.9812H68.5043C68.9956 14.9812 69.4668 15.1764 69.8142 15.5239C70.1616 15.8713 70.3567 16.3425 70.3567 16.8338C70.3567 17.3251 70.1615 17.7963 69.814 18.1437C69.4666 18.4911 68.9954 18.6862 68.5041 18.6862ZM63.6774 29.5823C63.6774 29.091 63.4822 28.6198 63.1348 28.2724C62.7874 27.925 62.3162 27.7298 61.8249 27.7298H24.9743C24.483 27.7298 24.0118 27.925 23.6644 28.2724C23.317 28.6198 23.1218 29.091 23.1218 29.5823C23.1218 30.0736 23.317 30.5448 23.6644 30.8922C24.0118 31.2396 24.483 31.4348 24.9743 31.4348H61.8249C62.3162 31.4348 62.7874 31.2396 63.1348 30.8922C63.4822 30.5448 63.6774 30.0736 63.6774 29.5823ZM92.5686 42.3309C92.5686 41.8396 92.3734 41.3684 92.026 41.021C91.6786 40.6736 91.2074 40.4784 90.716 40.4784H24.9743C24.483 40.4784 24.0118 40.6736 23.6644 41.021C23.317 41.3684 23.1218 41.8396 23.1218 42.3309C23.1218 42.8222 23.317 43.2934 23.6644 43.6408C24.0118 43.9882 24.483 44.1834 24.9743 44.1834H90.716C91.2074 44.1834 91.6786 43.9882 92.026 43.6408C92.3734 43.2934 92.5686 42.8222 92.5686 42.3309ZM88.4428 55.0793C88.4428 54.5879 88.2477 54.1167 87.9003 53.7693C87.5529 53.4219 87.0817 53.2267 86.5903 53.2267H24.9743C24.483 53.2267 24.0118 53.4219 23.6644 53.7693C23.317 54.1167 23.1218 54.5879 23.1218 55.0793C23.1218 55.5706 23.317 56.0418 23.6644 56.3892C24.0118 56.7366 24.483 56.9317 24.9743 56.9317H86.5906C86.8338 56.9317 87.0747 56.8838 87.2995 56.7907C87.5242 56.6976 87.7284 56.5612 87.9004 56.3892C88.0724 56.2171 88.2088 56.0129 88.3019 55.7882C88.395 55.5634 88.4429 55.3225 88.4428 55.0793ZM63.6774 67.8278C63.6774 67.3365 63.4822 66.8653 63.1348 66.5179C62.7874 66.1705 62.3162 65.9753 61.8249 65.9753H24.9743C24.483 65.9753 24.0118 66.1705 23.6644 66.5179C23.317 66.8653 23.1218 67.3365 23.1218 67.8278C23.1218 68.3192 23.317 68.7903 23.6644 69.1378C24.0118 69.4852 24.483 69.6803 24.9743 69.6803H61.8249C62.0682 69.6804 62.3091 69.6325 62.5338 69.5394C62.7586 69.4463 62.9628 69.3098 63.1349 69.1378C63.3069 68.9658 63.4433 68.7616 63.5364 68.5368C63.6295 68.312 63.6774 68.0711 63.6774 67.8278ZM92.5686 80.5764C92.5686 80.0851 92.3734 79.6139 92.026 79.2665C91.6786 78.9191 91.2074 78.7239 90.716 78.7239H24.9743C24.483 78.7239 24.0118 78.9191 23.6644 79.2665C23.317 79.6139 23.1218 80.0851 23.1218 80.5764C23.1218 81.0677 23.317 81.5389 23.6644 81.8864C24.0118 82.2338 24.483 82.4289 24.9743 82.4289H90.716C91.2074 82.4289 91.6786 82.2338 92.026 81.8864C92.3734 81.5389 92.5686 81.0677 92.5686 80.5764ZM92.5686 93.325C92.5686 92.8337 92.3734 92.3625 92.026 92.0151C91.6786 91.6677 91.2074 91.4725 90.716 91.4725H24.9743C24.483 91.4725 24.0118 91.6677 23.6644 92.0151C23.317 92.3625 23.1218 92.8337 23.1218 93.325C23.1218 93.8164 23.317 94.2875 23.6644 94.6349C24.0118 94.9824 24.483 95.1775 24.9743 95.1775H90.716C91.2074 95.1775 91.6786 94.9824 92.026 94.6349C92.3734 94.2875 92.5686 93.8164 92.5686 93.325ZM92.5686 106.073C92.5686 105.582 92.3734 105.111 92.026 104.763C91.6786 104.416 91.2074 104.221 90.716 104.221H24.9743C24.483 104.221 24.0118 104.416 23.6644 104.763C23.317 105.111 23.1218 105.582 23.1218 106.073C23.1218 106.565 23.317 107.036 23.6644 107.383C24.0118 107.731 24.483 107.926 24.9743 107.926H90.716C91.2074 107.926 91.6786 107.731 92.026 107.383C92.3734 107.036 92.5686 106.565 92.5686 106.073Z" fill="#96A9B2"/>
<path d="M80 0.871094L106.423 27.2943H85.6163C82.5144 27.2943 80 24.7797 80 21.678V0.871094Z" fill="#B9C5C6"/>
</svg>
